<svg xmlns="http://www.w3.org/2000/svg" version="1.1" xmlns:xlink="http://www.w3.org/1999/xlink" viewBox="0 0 200 200"><rect width="200" height="200" fill="url('#gradient')"></rect><defs><linearGradient id="gradient" gradientTransform="rotate(36 0.5 0.5)"><stop offset="0%" stop-color="#dc66ff"></stop><stop offset="100%" stop-color="#8182eb"></stop></linearGradient></defs><g><g fill="#ffffff" transform="matrix(1.5300958258892319,0,0,1.5300958258892319,6.550178658538236,111.48325179369395)" stroke="#000000" stroke-width="0.2"><path d="M10.73-5.36L10.73-5.20Q10.73-2.60 9.66-1.20Q8.58 0.20 6.63 0.20L6.63 0.20Q5.02 0.20 4.03-1.08L4.03-1.08L3.90 0L0.95 0L0.95-15L4.24-15L4.24-9.72Q5.16-10.76 6.61-10.76L6.61-10.76Q8.58-10.76 9.66-9.35Q10.73-7.93 10.73-5.36L10.73-5.36ZM7.43-5.40L7.43-5.40Q7.43-6.92 7.03-7.57Q6.62-8.22 5.78-8.22L5.78-8.22Q4.67-8.22 4.24-7.37L4.24-7.37L4.24-3.17Q4.66-2.33 5.80-2.33L5.80-2.33Q6.96-2.33 7.28-3.47L7.28-3.47Q7.43-4.02 7.43-5.40ZM11.78-4.82L11.77-5.38Q11.77-6.96 12.38-8.20Q13.00-9.43 14.15-10.10Q15.30-10.76 16.86-10.76L16.86-10.76Q19.23-10.76 20.60-9.29Q21.96-7.82 21.96-5.29L21.96-5.29L21.96-5.18Q21.96-2.71 20.59-1.25Q19.22 0.20 16.88 0.20L16.88 0.20Q14.62 0.20 13.25-1.16Q11.88-2.51 11.78-4.82L11.78-4.82ZM15.07-5.77L15.06-5.18Q15.06-3.71 15.52-3.03Q15.98-2.34 16.88-2.34L16.88-2.34Q18.63-2.34 18.67-5.05L18.67-5.05L18.67-5.38Q18.67-8.22 16.86-8.22L16.86-8.22Q15.21-8.22 15.07-5.77L15.07-5.77ZM23.35-10.57L26.44-10.57L26.54-9.33Q27.64-10.76 29.56-10.76L29.56-10.76Q31.21-10.76 32.03-9.78Q32.84-8.79 32.87-6.81L32.87-6.81L32.87 0L29.57 0L29.57-6.67Q29.57-7.47 29.25-7.85Q28.93-8.22 28.08-8.22L28.08-8.22Q27.11-8.22 26.64-7.46L26.64-7.46L26.64 0L23.35 0L23.35-10.57ZM39.80 0.20L39.80 0.20Q37.37 0.20 35.87-1.25Q34.37-2.71 34.37-5.03L34.37-5.03L34.37-5.30Q34.37-6.92 34.97-8.16Q35.57-9.40 36.72-10.08Q37.87-10.76 39.45-10.76L39.45-10.76Q41.68-10.76 42.97-9.38Q44.26-8.00 44.26-5.53L44.26-5.53L44.26-4.25L37.71-4.25Q37.89-3.36 38.49-2.85Q39.08-2.34 40.03-2.34L40.03-2.34Q41.59-2.34 42.47-3.44L42.47-3.44L43.97-1.66Q43.36-0.81 42.23-0.31Q41.10 0.20 39.80 0.20ZM39.43-8.22L39.43-8.22Q37.99-8.22 37.71-6.31L37.71-6.31L41.04-6.31L41.04-6.56Q41.05-7.35 40.63-7.79Q40.21-8.22 39.43-8.22ZM54.59 0L51.29 0L51.29-8.28L49.76-8.28L49.76-10.57L51.29-10.57L51.29-11.41Q51.29-13.21 52.35-14.21Q53.42-15.21 55.34-15.21L55.34-15.21Q56.04-15.21 56.88-15L56.88-15L56.89-12.58Q56.59-12.67 56.08-12.67L56.08-12.67Q54.59-12.67 54.59-11.38L54.59-11.38L54.59-10.57L56.65-10.57L56.65-8.28L54.59-8.28L54.59 0ZM64.26-10.64L64.20-7.59L63.12-7.67Q61.56-7.67 61.12-6.69L61.12-6.69L61.12 0L57.83 0L57.83-10.57L60.92-10.57L61.03-9.21Q61.86-10.76 63.34-10.76L63.34-10.76Q63.87-10.76 64.26-10.64L64.26-10.64ZM74.34 0L71.04 0Q70.87-0.32 70.73-0.95L70.73-0.95Q69.82 0.20 68.19 0.20L68.19 0.20Q66.70 0.20 65.65-0.71Q64.61-1.61 64.61-2.98L64.61-2.98Q64.61-4.70 65.88-5.58Q67.15-6.46 69.57-6.46L69.57-6.46L70.59-6.46L70.59-7.01Q70.59-8.47 69.33-8.47L69.33-8.47Q68.15-8.47 68.15-7.31L68.15-7.31L64.86-7.31Q64.86-8.85 66.17-9.80Q67.47-10.76 69.49-10.76Q71.51-10.76 72.69-9.78Q73.86-8.79 73.89-7.07L73.89-7.07L73.89-2.39Q73.91-0.94 74.34-0.17L74.34-0.17L74.34 0ZM68.98-2.15L68.98-2.15Q69.60-2.15 70.00-2.41Q70.41-2.68 70.59-3.01L70.59-3.01L70.59-4.70L69.63-4.70Q67.91-4.70 67.91-3.15L67.91-3.15Q67.91-2.71 68.21-2.43Q68.52-2.15 68.98-2.15ZM80.18-2.34L80.18-2.34Q80.87-2.34 81.25-2.72Q81.63-3.10 81.62-3.77L81.62-3.77L84.71-3.77Q84.71-2.03 83.46-0.92Q82.22 0.20 80.25 0.20L80.25 0.20Q77.95 0.20 76.62-1.25Q75.29-2.70 75.29-5.25L75.29-5.25L75.29-5.39Q75.29-6.99 75.88-8.22Q76.47-9.44 77.59-10.10Q78.70-10.76 80.22-10.76L80.22-10.76Q82.29-10.76 83.50-9.62Q84.71-8.48 84.71-6.52L84.71-6.52L81.62-6.52Q81.62-7.34 81.22-7.78Q80.82-8.22 80.15-8.22L80.15-8.22Q78.87-8.22 78.65-6.59L78.65-6.59Q78.58-6.07 78.58-5.17L78.58-5.17Q78.58-3.57 78.96-2.96Q79.35-2.34 80.18-2.34ZM86.64-13.19L89.93-13.19L89.93-10.57L91.67-10.57L91.67-8.28L89.93-8.28L89.93-3.45Q89.93-2.85 90.15-2.62Q90.36-2.38 91.00-2.38L91.00-2.38Q91.48-2.38 91.82-2.44L91.82-2.44L91.82-0.09Q90.93 0.20 89.96 0.20L89.96 0.20Q88.26 0.20 87.45-0.61Q86.64-1.41 86.64-3.04L86.64-3.04L86.64-8.28L85.29-8.28L85.29-10.57L86.64-10.57L86.64-13.19ZM99.36 0L99.26-1.14Q98.21 0.20 96.44 0.20L96.44 0.20Q94.70 0.20 93.80-0.82Q92.91-1.83 92.91-3.72L92.91-3.72L92.91-10.57L96.20-10.57L96.20-3.70Q96.20-2.34 97.52-2.34L97.52-2.34Q98.65-2.34 99.13-3.15L99.13-3.15L99.13-10.57L102.44-10.57L102.44 0L99.36 0ZM110.69-10.64L110.63-7.59L109.55-7.67Q108.00-7.67 107.56-6.69L107.56-6.69L107.56 0L104.27 0L104.27-10.57L107.35-10.57L107.46-9.21Q108.29-10.76 109.78-10.76L109.78-10.76Q110.30-10.76 110.69-10.64L110.69-10.64ZM116.75 0.20L116.75 0.20Q114.32 0.20 112.81-1.25Q111.31-2.71 111.31-5.03L111.31-5.03L111.31-5.30Q111.31-6.92 111.91-8.16Q112.51-9.40 113.66-10.08Q114.81-10.76 116.40-10.76L116.40-10.76Q118.62-10.76 119.91-9.38Q121.20-8.00 121.20-5.53L121.20-5.53L121.20-4.25L114.66-4.25Q114.83-3.36 115.43-2.85Q116.03-2.34 116.97-2.34L116.97-2.34Q118.54-2.34 119.41-3.44L119.41-3.44L120.92-1.66Q120.30-0.81 119.17-0.31Q118.05 0.20 116.75 0.20ZM116.38-8.22L116.38-8.22Q114.93-8.22 114.66-6.31L114.66-6.31L117.98-6.31L117.98-6.56Q118.00-7.35 117.58-7.79Q117.16-8.22 116.38-8.22Z"></path></g></g></svg>